name C:\Users\r0593348\3dpredictsim\Results\MidTarsalJoint\Fal_s1_bCst_PF_Natali2010_ls150_MT_k300_MTP_T2_ig24.mot
datacolumns 128
datarows 4
range 0.56597871 0.59993744
endheader
time	pelvis_tilt	pelvis_list	pelvis_rotation	pelvis_tx	pelvis_ty	pelvis_tz	hip_flexion_l	hip_adduction_l	hip_rotation_l	hip_flexion_r	hip_adduction_r	hip_rotation_r	knee_angle_l	knee_angle_r	ankle_angle_l	ankle_angle_r	subtalar_angle_l	subtalar_angle_r	mtj_angle_l	mtj_angle_r	mtp_angle_l	mtp_angle_r	lumbar_extension	lumbar_bending	lumbar_rotation	arm_flex_l	arm_add_l	arm_rot_l	arm_flex_r	arm_add_r	arm_rot_r	elbow_flex_l	elbow_flex_r	pro_sup_l	pro_sup_r	glut_med1_l/activation	glut_med2_l/activation	glut_med3_l/activation	glut_min1_l/activation	glut_min2_l/activation	glut_min3_l/activation	semimem_l/activation	semiten_l/activation	bifemlh_l/activation	bifemsh_l/activation	sar_l/activation	add_long_l/activation	add_brev_l/activation	add_mag1_l/activation	add_mag2_l/activation	add_mag3_l/activation	tfl_l/activation	pect_l/activation	grac_l/activation	glut_max1_l/activation	glut_max2_l/activation	glut_max3_l/activation	iliacus_l/activation	psoas_l/activation	quad_fem_l/activation	gem_l/activation	peri_l/activation	rect_fem_l/activation	vas_med_l/activation	vas_int_l/activation	vas_lat_l/activation	med_gas_l/activation	lat_gas_l/activation	soleus_l/activation	tib_post_l/activation	flex_dig_l/activation	flex_hal_l/activation	tib_ant_l/activation	per_brev_l/activation	per_long_l/activation	per_tert_l/activation	ext_dig_l/activation	ext_hal_l/activation	ercspn_l/activation	intobl_l/activation	extobl_l/activation	glut_med1_r/activation	glut_med2_r/activation	glut_med3_r/activation	glut_min1_r/activation	glut_min2_r/activation	glut_min3_r/activation	semimem_r/activation	semiten_r/activation	bifemlh_r/activation	bifemsh_r/activation	sar_r/activation	add_long_r/activation	add_brev_r/activation	add_mag1_r/activation	add_mag2_r/activation	add_mag3_r/activation	tfl_r/activation	pect_r/activation	grac_r/activation	glut_max1_r/activation	glut_max2_r/activation	glut_max3_r/activation	iliacus_r/activation	psoas_r/activation	quad_fem_r/activation	gem_r/activation	peri_r/activation	rect_fem_r/activation	vas_med_r/activation	vas_int_r/activation	vas_lat_r/activation	med_gas_r/activation	lat_gas_r/activation	soleus_r/activation	tib_post_r/activation	flex_dig_r/activation	flex_hal_r/activation	tib_ant_r/activation	per_brev_r/activation	per_long_r/activation	per_tert_r/activation	ext_dig_r/activation	ext_hal_r/activation	ercspn_r/activation	intobl_r/activation	extobl_r/activation	
          0.56597871	         -2.92957738	          2.11104163	         -5.14839070	          0.70747339	          0.91911773	          0.00213401	         29.57922275	          3.29826986	         -2.43720274	        -16.86023311	         -0.84797579	          6.76842343	        -10.97414448	         -6.85593595	          6.03480489	         -1.47050057	         -5.18601859	          7.07797858	         -0.01158695	          5.05382252	         -0.91231777	         11.41228338	         -2.01440242	         -0.21761497	          2.00410192	         -4.90965478	        -13.45735701	          6.07695662	          5.02669475	        -13.44998756	         16.00396298	         17.28458820	         33.73274704	         86.51662706	         86.51662706	          0.07559731	          0.05000011	          0.05943303	          0.05000005	          0.05000007	          0.05000041	          0.22972076	          0.05943315	          0.07163578	          0.05000055	          0.05000042	          0.09036054	          0.19176908	          0.20752722	          0.15772322	          0.10295194	          0.05943310	          0.05000393	          0.10779134	          0.05943390	          0.06866494	          0.10853181	          0.05000005	          0.05000007	          0.25072575	          0.05038234	          0.05000029	          0.05000006	          0.05239825	          0.05353890	          0.05000597	          0.05943291	          0.05943290	          0.05943296	          0.05116403	          0.05000066	          0.05000179	          0.46140662	          0.29758226	          0.18406462	          0.08044983	          0.44981267	          0.05197089	          0.05943382	          0.13787570	          0.11736993	          0.32767759	          0.10932017	          0.08397328	          0.32941654	          0.21476252	          0.11864677	          0.05000035	          0.05000008	          0.05000006	          0.06189741	          0.11818440	          0.05000003	          0.05000004	          0.05000006	          0.05000018	          0.05000014	          0.34572351	          0.05000017	          0.05000013	          0.05037509	          0.05000387	          0.05000048	          0.42972371	          0.66254127	          0.05000010	          0.05000051	          0.07064473	          0.23685755	          0.05001706	          0.05000215	          0.05000156	          0.31398975	          0.42893541	          0.34900148	          0.28055791	          0.28403144	          0.36068896	          0.05000002	          0.05011427	          0.12028254	          0.05000015	          0.05000004	          0.05000015	          0.05000000	          0.05000000	          0.05000000	
          0.57729829	         -2.92965074	          2.20137402	         -5.44543417	          0.72430901	          0.91822056	          0.00193783	         29.01551059	          3.66126613	         -2.24618297	        -16.85124941	         -1.15415131	          6.56716259	        -11.03105514	         -8.55783315	          5.36271373	         -1.92015128	         -5.56942001	          8.05318851	         -0.04387080	          4.28240717	         -0.91507137	         13.14784688	         -1.82928205	         -0.41223722	          2.07644129	         -5.76257528	        -13.45135742	          5.83797271	          4.81190589	        -13.45487644	         16.39901530	         16.84566061	         34.88856622	         86.51662706	         86.51662706	          0.06359940	          0.05000115	          0.05000011	          0.05943323	          0.05943297	          0.05000046	          0.19326044	          0.05000020	          0.06026604	          0.05000015	          0.05000052	          0.11864747	          0.24678470	          0.22521757	          0.15929610	          0.09758695	          0.05000021	          0.07064272	          0.09068342	          0.05000088	          0.05776674	          0.11055108	          0.06837632	          0.06370307	          0.54128870	          0.16788188	          0.14090789	          0.08389572	          0.18011536	          0.17847899	          0.15505762	          0.05000001	          0.05000002	          0.05000000	          0.05000007	          0.05000077	          0.05000057	          0.51938706	          0.25036253	          0.18314413	          0.19625809	          0.47619442	          0.05943330	          0.05000071	          0.11599259	          0.09874142	          0.27566991	          0.09196930	          0.07064539	          0.27713285	          0.18067626	          0.09981564	          0.05000235	          0.05000046	          0.05000057	          0.05207334	          0.09942672	          0.08748225	          0.06858442	          0.05001861	          0.05001252	          0.05001994	          0.29085167	          0.05665957	          0.05000484	          0.05000169	          0.05000128	          0.05000169	          0.36151962	          0.56880338	          0.05000052	          0.05002130	          0.05943302	          0.19926444	          0.05000124	          0.12831633	          0.13416650	          0.26415449	          0.36085646	          0.31969362	          0.26128284	          0.23895385	          0.31687803	          0.05000004	          0.05000026	          0.11443999	          0.05000017	          0.05000004	          0.05000020	          0.05000003	          0.07241261	          0.05179491	
          0.58861786	         -2.92611298	          2.29359884	         -5.71463172	          0.74149566	          0.91737688	          0.00175618	         28.33504640	          3.95896904	         -1.99385551	        -16.78669169	         -1.46294190	          6.35814891	        -11.49666716	        -10.34929949	          4.68805911	         -2.48976531	         -5.95229454	          9.00788977	         -0.19987064	          3.34526900	         -0.91711944	         15.02610818	         -1.62031270	         -0.61921605	          2.13831924	         -6.65659673	        -13.45036127	          5.63718363	          4.51218757	        -13.45720374	         16.71794763	         16.47015506	         36.02657449	         86.51662706	         86.51662706	          0.21602210	          0.05000005	          0.17276730	          0.05000024	          0.05000009	          0.05000018	          0.17942262	          0.08438248	          0.07400282	          0.05000019	          0.05000274	          0.09981625	          0.20761607	          0.18947202	          0.13401339	          0.10652892	          0.05000031	          0.05943464	          0.09570862	          0.05000026	          0.05000045	          0.09300493	          0.05943291	          0.05937412	          0.45537742	          0.14123635	          0.11854388	          0.07058011	          0.15152815	          0.15015150	          0.13044748	          0.05482950	          0.05688135	          0.05357237	          0.05000095	          0.05000049	          0.05000051	          0.43695200	          0.26564065	          0.15859452	          0.16510877	          0.55101670	          0.05000028	          0.05000000	          0.12141139	          0.08306956	          0.32979678	          0.07737230	          0.05943285	          0.23314746	          0.15200005	          0.08397330	          0.05000143	          0.05000055	          0.05000039	          0.05000008	          0.08364622	          0.12090111	          0.06289337	          0.05943360	          0.05943348	          0.05943332	          0.24468905	          0.06246810	          0.05413517	          0.05001811	          0.05001870	          0.05943277	          0.30414106	          0.56497966	          0.05943276	          0.05000081	          0.05000011	          0.16763795	          0.13976752	          0.10795114	          0.11287282	          0.22222889	          0.30358270	          0.26895306	          0.21981310	          0.20102815	          0.26658451	          0.05000000	          0.05000036	          0.14639444	          0.05000005	          0.05000001	          0.05000007	          0.05000010	          0.06091956	          0.05943303	
          0.59993744	         -2.92044094	          2.38744279	         -5.94945227	          0.75888646	          0.91660325	          0.00157307	         27.54085030	          4.20280155	         -1.73221816	        -16.64679601	         -1.76975009	          6.14664240	        -11.94825528	        -12.24485380	          4.06158202	         -3.20936511	         -6.34278192	          9.92208330	         -0.14483881	          2.29476011	         -0.89609618	         16.97741409	         -1.40246269	         -0.83762951	          2.19071348	         -7.55567561	        -13.45430382	          5.48706490	          4.14687177	        -13.46041336	         16.96990501	         16.13844265	         37.14158340	         86.51662706	         86.51662706	          0.29110759	          0.25236515	          0.29993305	          0.16506482	          0.19395545	          0.17055470	          0.15094535	          0.07098971	          0.06225740	          0.07732622	          0.05000117	          0.08397381	          0.17466405	          0.15939983	          0.11274344	          0.12657025	          0.05000045	          0.05000170	          0.08051842	          0.18351334	          0.13921305	          0.09977834	          0.05000006	          0.05000006	          0.38310167	          0.11881993	          0.12249214	          0.05937794	          0.12747845	          0.12632070	          0.10974362	          0.05000036	          0.05000331	          0.05000004	          0.05000005	          0.05000019	          0.05000027	          0.55746130	          0.33983451	          0.18648632	          0.43677680	          0.51040017	          0.21966644	          0.07086178	          0.10659001	          0.06988508	          0.28199603	          0.06509208	          0.05000006	          0.35824295	          0.12787523	          0.07064542	          0.05000109	          0.05000010	          0.05000008	          0.05000023	          0.07064559	          0.10171255	          0.05291123	          0.05000062	          0.05000075	          0.05000051	          0.25476637	          0.05255417	          0.05000030	          0.05000073	          0.05000043	          0.05000033	          0.25587086	          0.53436495	          0.05000005	          0.05000037	          0.05000025	          0.14103112	          0.11758472	          0.09081784	          0.14103042	          0.18695756	          0.25539920	          0.22626585	          0.18492523	          0.16912179	          0.22427328	          0.05000015	          0.06023045	          0.15514028	          0.05000036	          0.07849531	          0.05000030	          0.05992710	          0.05125064	          0.05000006	
